# xmcd
#
# Track frame offsets:
#       150
#       21450
#       40928
#
# Disc length: 959 seconds
#
# Revision: 1
# Processed by: cddbd v1.5.2PL0 Copyright (c) Steve Scherf et al.
# Submitted via: FreeDbEdit v0.1
#
DISCID=2003bd03
DTITLE=Luc Baiwir - I Have a Dream
DYEAR=1996
DGENRE=New Age
TTITLE0=I Have a Dream
TTITLE1=Dolphin's Dance
TTITLE2=Lueur Planète Océan
EXTD=YEAR: 1996
EXTT0=
EXTT1=
EXTT2=
PLAYORDER=
